<svg width="180" height="180" viewBox="0 0 180 180" fill="none" xmlns="http://www.w3.org/2000/svg">
<path d="M0 112.677C6.07477 112.394 11.215 110.037 15.4206 105.605C19.6262 101.173 21.7757 95.8931 21.7757 89.7643C21.7757 95.8931 23.8318 101.173 28.0374 105.605C32.243 110.037 37.3832 112.394 43.458 112.677C37.3832 112.96 32.243 115.317 28.0374 119.749C26.0041 121.838 24.4033 124.314 23.3282 127.034C22.2532 129.754 21.7254 132.662 21.7757 135.589C21.7757 129.46 19.7196 124.18 15.4206 119.749C11.215 115.317 6.07477 112.96 0 112.677ZM21.7757 44.7878C33.5514 44.2221 43.5514 39.6019 51.7757 30.9272C60 22.2525 64.1121 11.9749 64.1121 0C64.1121 11.9749 68.2243 22.2525 76.4486 30.9272C84.6729 39.6019 94.6729 44.1278 106.542 44.7878C98.7851 45.165 91.6822 47.3337 85.1402 51.4824C78.6916 55.5369 73.5514 61.0058 69.7196 67.7947C65.9813 74.5835 64.1121 81.8439 64.1121 89.7643C64.1121 77.7894 60 67.4175 51.7757 58.7428C43.5514 49.9738 33.5514 45.3536 21.7757 44.7878ZM52.8037 146.338C61.6823 145.961 69.2523 142.473 75.4206 135.966C81.5888 129.46 84.6729 121.729 84.6729 112.677C84.6729 121.729 87.757 129.46 93.9252 135.966C100.093 142.473 107.57 145.961 116.449 146.338C107.57 146.716 100.093 150.204 93.9252 156.71C87.757 163.216 84.6729 170.948 84.6729 180C84.6729 170.948 81.5888 163.216 75.4206 156.71C69.5252 150.389 61.4006 146.663 52.8037 146.338ZM116.449 101.645C125.327 101.268 132.804 97.7789 138.972 91.2729C145.14 84.7669 148.131 77.0351 148.131 67.889C148.131 76.9408 151.215 84.6726 157.383 91.1786C163.551 97.6847 171.121 101.173 180 101.551C171.121 101.928 163.551 105.416 157.383 111.922C151.215 118.429 148.131 126.16 148.131 135.212C148.131 126.16 145.047 118.429 138.972 111.922C132.804 105.511 125.327 102.022 116.449 101.645Z" fill="url(#paint0_linear_2280_57)"/>
<defs>
<linearGradient id="paint0_linear_2280_57" x1="36.5625" y1="114.658" x2="179.851" y2="114.555" gradientUnits="userSpaceOnUse">
<stop stop-color="#D10ED1"/>
<stop offset="1" stop-color="#10A3DA"/>
</linearGradient>
</defs>
</svg>
