<svg width="16" height="16" viewBox="0 0 16 16" fill="none" xmlns="http://www.w3.org/2000/svg">
<path d="M0 10.0157C0.539979 9.99057 0.996885 9.78104 1.37072 9.38711C1.74455 8.99319 1.93562 8.52383 1.93562 7.97905C1.93562 8.52383 2.11838 8.99319 2.49221 9.38711C2.86604 9.78104 3.32295 9.99057 3.86293 10.0157C3.32295 10.0409 2.86604 10.2504 2.49221 10.6443C2.31148 10.83 2.16918 11.0502 2.07362 11.2919C1.97806 11.5336 1.93115 11.7922 1.93562 12.0524C1.93562 11.5076 1.75286 11.0382 1.37072 10.6443C0.996885 10.2504 0.539979 10.0409 0 10.0157ZM1.93562 3.98114C2.98235 3.93085 3.87124 3.52017 4.60228 2.74908C5.33333 1.978 5.69886 1.06443 5.69886 0C5.69886 1.06443 6.06438 1.978 6.79543 2.74908C7.52648 3.52017 8.41537 3.92247 9.47041 3.98114C8.78089 4.01467 8.14953 4.20744 7.56802 4.57622C6.99481 4.93662 6.5379 5.42273 6.1973 6.02619C5.86501 6.62965 5.69886 7.27501 5.69886 7.97905C5.69886 6.91462 5.33333 5.99267 4.60228 5.22158C3.87124 4.44212 2.98235 4.03143 1.93562 3.98114ZM4.69367 13.0079C5.48287 12.9743 6.15576 12.6642 6.70405 12.0859C7.25234 11.5076 7.52648 10.8203 7.52648 10.0157C7.52648 10.8203 7.80062 11.5076 8.34891 12.0859C8.8972 12.6642 9.56179 12.9743 10.351 13.0079C9.56179 13.0414 8.8972 13.3515 8.34891 13.9298C7.80062 14.5081 7.52648 15.1954 7.52648 16C7.52648 15.1954 7.25234 14.5081 6.70405 13.9298C6.18001 13.3679 5.45783 13.0367 4.69367 13.0079ZM10.351 9.0351C11.1402 9.00157 11.8048 8.69146 12.3531 8.11315C12.9013 7.53484 13.1672 6.84756 13.1672 6.03457C13.1672 6.83918 13.4413 7.52645 13.9896 8.10477C14.5379 8.68308 15.2108 8.99319 16 9.02672C15.2108 9.06024 14.5379 9.37035 13.9896 9.94867C13.4413 10.527 13.1672 11.2142 13.1672 12.0189C13.1672 11.2142 12.893 10.527 12.3531 9.94867C11.8048 9.37873 11.1402 9.06862 10.351 9.0351Z" fill="url(#paint0_linear_2280_51)"/>
<defs>
<linearGradient id="paint0_linear_2280_51" x1="3.25" y1="10.1918" x2="15.9867" y2="10.1827" gradientUnits="userSpaceOnUse">
<stop stop-color="#D10ED1"/>
<stop offset="1" stop-color="#10A3DA"/>
</linearGradient>
</defs>
</svg>
