<svg width="48" height="48" viewBox="0 0 48 48" fill="none" xmlns="http://www.w3.org/2000/svg">
<path d="M0 30.0471C1.61994 29.9717 2.99065 29.3431 4.11215 28.1613C5.23365 26.9796 5.80685 25.5715 5.80685 23.9371C5.80685 25.5715 6.35514 26.9796 7.47664 28.1613C8.59813 29.3431 9.96885 29.9717 11.5888 30.0471C9.96885 30.1226 8.59813 30.7512 7.47664 31.933C6.93443 32.4901 6.50754 33.1505 6.22087 33.8757C5.93419 34.6009 5.79345 35.3765 5.80685 36.1572C5.80685 34.5228 5.25857 33.1147 4.11215 31.933C2.99065 30.7512 1.61994 30.1226 0 30.0471ZM5.80685 11.9434C8.94704 11.7926 11.6137 10.5605 13.8069 8.24725C16 5.934 17.0966 3.19329 17.0966 0C17.0966 3.19329 18.1931 5.934 20.3863 8.24725C22.5794 10.5605 25.2461 11.7674 28.4112 11.9434C26.3427 12.044 24.4486 12.6223 22.704 13.7287C20.9844 14.8098 19.6137 16.2682 18.5919 18.0786C17.595 19.8889 17.0966 21.825 17.0966 23.9371C17.0966 20.7438 16 17.978 13.8069 15.6647C11.6137 13.3263 8.94704 12.0943 5.80685 11.9434ZM14.081 39.0236C16.4486 38.923 18.4673 37.9927 20.1121 36.2577C21.757 34.5228 22.5794 32.461 22.5794 30.0471C22.5794 32.461 23.4019 34.5228 25.0467 36.2577C26.6916 37.9927 28.6854 38.923 31.053 39.0236C28.6854 39.1242 26.6916 40.0545 25.0467 41.7894C23.4019 43.5244 22.5794 45.5862 22.5794 48C22.5794 45.5862 21.757 43.5244 20.1121 41.7894C18.54 40.1038 16.3735 39.1102 14.081 39.0236ZM31.053 27.1053C33.4206 27.0047 35.4143 26.0744 37.0592 24.3394C38.7041 22.6045 39.5016 20.5427 39.5016 18.1037C39.5016 20.5175 40.324 22.5794 41.9689 24.3143C43.6137 26.0492 45.6324 26.9796 48 27.0801C45.6324 27.1807 43.6137 28.1111 41.9689 29.846C40.324 31.5809 39.5016 33.6427 39.5016 36.0566C39.5016 33.6427 38.6791 31.5809 37.0592 29.846C35.4143 28.1362 33.4206 27.2059 31.053 27.1053Z" fill="url(#paint0_linear_2280_55)"/>
<defs>
<linearGradient id="paint0_linear_2280_55" x1="9.75" y1="30.5753" x2="47.9602" y2="30.548" gradientUnits="userSpaceOnUse">
<stop stop-color="#D10ED1"/>
<stop offset="1" stop-color="#10A3DA"/>
</linearGradient>
</defs>
</svg>
