<svg width="32" height="32" viewBox="0 0 32 32" fill="none" xmlns="http://www.w3.org/2000/svg">
<path d="M0 20.0314C1.07996 19.9811 1.99377 19.5621 2.74143 18.7742C3.4891 17.9864 3.87124 17.0477 3.87124 15.9581C3.87124 17.0477 4.23676 17.9864 4.98442 18.7742C5.73209 19.5621 6.6459 19.9811 7.72586 20.0314C6.6459 20.0817 5.73209 20.5008 4.98442 21.2886C4.62295 21.66 4.33836 22.1003 4.14724 22.5838C3.95613 23.0673 3.8623 23.5843 3.87124 24.1048C3.87124 23.0152 3.50571 22.0765 2.74143 21.2886C1.99377 20.5008 1.07996 20.0817 0 20.0314ZM3.87124 7.96228C5.96469 7.86171 7.74247 7.04034 9.20457 5.49817C10.6667 3.956 11.3977 2.12886 11.3977 0C11.3977 2.12886 12.1288 3.956 13.5909 5.49817C15.053 7.04034 16.8307 7.84494 18.9408 7.96228C17.5618 8.02933 16.2991 8.41488 15.136 9.15244C13.9896 9.87323 13.0758 10.8455 12.3946 12.0524C11.73 13.2593 11.3977 14.55 11.3977 15.9581C11.3977 13.8292 10.6667 11.9853 9.20457 10.4432C7.74247 8.88423 5.96469 8.06286 3.87124 7.96228ZM9.38733 26.0157C10.9657 25.9487 12.3115 25.3284 13.4081 24.1718C14.5047 23.0152 15.053 21.6407 15.053 20.0314C15.053 21.6407 15.6012 23.0152 16.6978 24.1718C17.7944 25.3284 19.1236 25.9487 20.702 26.0157C19.1236 26.0828 17.7944 26.703 16.6978 27.8596C15.6012 29.0162 15.053 30.3908 15.053 32C15.053 30.3908 14.5047 29.0162 13.4081 27.8596C12.36 26.7359 10.9157 26.0735 9.38733 26.0157ZM20.702 18.0702C22.2804 18.0031 23.6096 17.3829 24.7061 16.2263C25.8027 15.0697 26.3344 13.6951 26.3344 12.0691C26.3344 13.6784 26.8827 15.0529 27.9792 16.2095C29.0758 17.3662 30.4216 17.9864 32 18.0534C30.4216 18.1205 29.0758 18.7407 27.9792 19.8973C26.8827 21.054 26.3344 22.4285 26.3344 24.0377C26.3344 22.4285 25.7861 21.054 24.7061 19.8973C23.6096 18.7575 22.2804 18.1372 20.702 18.0702Z" fill="url(#paint0_linear_2280_53)"/>
<defs>
<linearGradient id="paint0_linear_2280_53" x1="6.5" y1="20.3836" x2="31.9735" y2="20.3653" gradientUnits="userSpaceOnUse">
<stop stop-color="#D10ED1"/>
<stop offset="1" stop-color="#10A3DA"/>
</linearGradient>
</defs>
</svg>
